<svg width="21" height="20" viewBox="0 0 21 20" fill="none" xmlns="http://www.w3.org/2000/svg">
<path d="M16.0681 7.27539L9.51469 13.0465L8.46969 15.0711C8.30538 15.3894 8.67723 15.7168 9.03869 15.5721L11.3377 14.6519L17.8911 8.88077L16.0681 7.27539Z" fill="#FCFDFD"/>
<path d="M19.7143 5.6699C19.2108 5.22657 18.3946 5.22657 17.8912 5.6699L16.9797 6.47258L18.8028 8.07794L19.7143 7.27526C20.2176 6.83194 20.2176 6.11322 19.7143 5.6699Z" fill="#FCFDFD"/>
<path fill-rule="evenodd" clip-rule="evenodd" d="M9.66393 16.6054L11.9561 15.6879C12.0957 15.6329 12.2265 15.5553 12.3411 15.4544L16.1748 12.0783V17.7341C16.1748 18.673 15.3074 19.4369 14.2412 19.4369H1.93359C0.86741 19.4369 0 18.673 0 17.7341V2.59824C0 2.28478 0.288578 2.03065 0.644531 2.03065H2.17916V0.630585C2.17916 0.317116 2.46774 0.0629883 2.82369 0.0629883C3.17964 0.0629883 3.46822 0.317116 3.46822 0.630585V2.03065H4.81869V0.630585C4.81869 0.317116 5.10726 0.0629883 5.46322 0.0629883C5.81917 0.0629883 6.10775 0.317116 6.10775 0.630585V2.03065H7.45821V0.630585C7.45821 0.317116 7.74679 0.0629883 8.10274 0.0629883C8.4587 0.0629883 8.74727 0.317116 8.74727 0.630585V2.03065H10.0978V0.630585C10.0978 0.317116 10.3864 0.0629883 10.7423 0.0629883C11.0983 0.0629883 11.3868 0.317116 11.3868 0.630585V2.03065H12.7373V0.630585C12.7373 0.317116 13.0259 0.0629883 13.3818 0.0629883C13.7378 0.0629883 14.0264 0.317116 14.0264 0.630585V2.03069H15.5303C15.8862 2.03069 16.1748 2.28482 16.1748 2.59828V5.65682L16.16 5.66984L12.8203 8.61086L11.5312 9.74604L10.2422 10.8812L8.95309 12.0164L8.69507 12.2436C8.58597 12.3396 8.4987 12.4513 8.43549 12.5724L8.43304 12.5766L8.13626 13.1516L7.55034 14.2868L7.38804 14.6012C7.25261 14.8635 7.20659 15.1472 7.24689 15.422L7.30271 15.6987C7.35717 15.9687 7.52059 16.2043 7.75441 16.3498L8.08736 16.5571C8.09995 16.5571 8.11224 16.5561 8.12461 16.5555C8.3737 16.6765 8.65639 16.7424 8.95056 16.7424C9.19685 16.7424 9.43684 16.6963 9.66393 16.6054Z" fill="#FCFDFD"/>
</svg>
