<svg width="18" height="22" viewBox="0 0 18 22" fill="none" xmlns="http://www.w3.org/2000/svg">
<path fill-rule="evenodd" clip-rule="evenodd" d="M3 3H1C0.447715 3 0 3.44771 0 4V21C0 21.5523 0.447716 22 1 22H17C17.5523 22 18 21.5523 18 21V4C18 3.44772 17.5523 3 17 3H15V5C15 5.55228 14.5523 6 14 6H4C3.44772 6 3 5.55228 3 5V3ZM3.75 9C3.33579 9 3 9.33579 3 9.75C3 10.1642 3.33579 10.5 3.75 10.5H13.25C13.6642 10.5 14 10.1642 14 9.75C14 9.33579 13.6642 9 13.25 9H3.75ZM3 14.75C3 14.3358 3.33579 14 3.75 14H9.25C9.66421 14 10 14.3358 10 14.75C10 15.1642 9.66421 15.5 9.25 15.5H3.75C3.33579 15.5 3 15.1642 3 14.75Z" fill="white"/>
<rect x="4" y="2" width="10" height="3" rx="0.5" fill="white"/>
<rect x="6" width="6" height="5" rx="0.5" fill="white"/>
</svg>
