<svg width="177" height="220" viewBox="0 0 177 220" fill="none" xmlns="http://www.w3.org/2000/svg">
<path d="M80.3478 4.99102C78.9696 4.99102 77.8523 3.87374 77.8523 2.49551C77.8523 1.11728 78.9696 3.33067e-06 80.3478 3.39091e-06C81.7261 3.45116e-06 82.8433 1.11728 82.8433 2.49551C82.8433 3.87374 81.7261 4.99102 80.3478 4.99102Z" fill="#D4D7E0"/>
<path d="M49.2926 4.99102C47.9144 4.99102 46.7971 3.87374 46.7971 2.49551C46.7971 1.11728 47.9144 1.9732e-06 49.2926 2.03345e-06C50.6708 2.09369e-06 51.7881 1.11728 51.7881 2.49551C51.7881 3.87374 50.6708 4.99102 49.2926 4.99102Z" fill="#D4D7E0"/>
<path d="M18.3004 4.99102C16.9221 4.99102 15.8049 3.87374 15.8049 2.49551C15.8049 1.11728 16.9221 6.18487e-07 18.3004 6.78732e-07C19.6786 7.38976e-07 20.7959 1.11728 20.7959 2.49551C20.7959 3.87374 19.6786 4.99102 18.3004 4.99102Z" fill="#D4D7E0"/>
<path d="M64.8203 4.99102C63.442 4.99102 62.3247 3.87374 62.3247 2.49551C62.3247 1.11728 63.442 2.65194e-06 64.8203 2.71218e-06C66.1985 2.77243e-06 67.3158 1.11728 67.3158 2.49551C67.3158 3.87374 66.1985 4.99102 64.8203 4.99102Z" fill="#D4D7E0"/>
<path d="M33.765 4.99102C32.3868 4.99102 31.2695 3.87374 31.2695 2.49551C31.2695 1.11728 32.3868 1.29447e-06 33.765 1.35471e-06C35.1432 1.41496e-06 36.2605 1.11728 36.2605 2.49551C36.2605 3.87374 35.1432 4.99102 33.765 4.99102Z" fill="#D4D7E0"/>
<path d="M2.77278 4.99102C1.39455 4.99102 0.277275 3.87374 0.277275 2.49551C0.277275 1.11728 1.39455 -6.02444e-08 2.77278 0C4.15102 6.02444e-08 5.26829 1.11728 5.26829 2.49551C5.26829 3.87374 4.15102 4.99102 2.77278 4.99102Z" fill="#D4D7E0"/>
<path d="M80.3478 20.3337C78.9696 20.3337 77.8523 19.2164 77.8523 17.8382C77.8523 16.4599 78.9696 15.3427 80.3478 15.3427C81.7261 15.3427 82.8433 16.4599 82.8433 17.8382C82.8433 19.2164 81.7261 20.3337 80.3478 20.3337Z" fill="#D4D7E0"/>
<path d="M49.2926 20.3337C47.9144 20.3337 46.7971 19.2164 46.7971 17.8382C46.7971 16.4599 47.9144 15.3427 49.2926 15.3427C50.6708 15.3427 51.7881 16.4599 51.7881 17.8382C51.7881 19.2164 50.6708 20.3337 49.2926 20.3337Z" fill="#D4D7E0"/>
<path d="M18.3004 20.3337C16.9221 20.3337 15.8049 19.2164 15.8049 17.8382C15.8049 16.4599 16.9221 15.3427 18.3004 15.3427C19.6786 15.3427 20.7959 16.4599 20.7959 17.8382C20.7959 19.2164 19.6786 20.3337 18.3004 20.3337Z" fill="#D4D7E0"/>
<path d="M64.8203 20.3337C63.442 20.3337 62.3247 19.2164 62.3247 17.8382C62.3247 16.4599 63.442 15.3427 64.8203 15.3427C66.1985 15.3427 67.3158 16.4599 67.3158 17.8382C67.3158 19.2164 66.1985 20.3337 64.8203 20.3337Z" fill="#D4D7E0"/>
<path d="M33.765 20.3337C32.3868 20.3337 31.2695 19.2164 31.2695 17.8382C31.2695 16.4599 32.3868 15.3427 33.765 15.3427C35.1432 15.3427 36.2605 16.4599 36.2605 17.8382C36.2605 19.2164 35.1432 20.3337 33.765 20.3337Z" fill="#D4D7E0"/>
<path d="M2.77278 20.3337C1.39455 20.3337 0.277275 19.2164 0.277275 17.8382C0.277275 16.4599 1.39455 15.3427 2.77278 15.3427C4.15102 15.3427 5.26829 16.4599 5.26829 17.8382C5.26829 19.2164 4.15102 20.3337 2.77278 20.3337Z" fill="#D4D7E0"/>
<path d="M80.3478 35.6763C78.9696 35.6763 77.8523 34.5591 77.8523 33.1808C77.8523 31.8026 78.9696 30.6853 80.3478 30.6853C81.7261 30.6853 82.8433 31.8026 82.8433 33.1808C82.8433 34.5591 81.7261 35.6763 80.3478 35.6763Z" fill="#D4D7E0"/>
<path d="M49.2926 35.6763C47.9144 35.6763 46.7971 34.5591 46.7971 33.1808C46.7971 31.8026 47.9144 30.6853 49.2926 30.6853C50.6708 30.6853 51.7881 31.8026 51.7881 33.1808C51.7881 34.5591 50.6708 35.6763 49.2926 35.6763Z" fill="#D4D7E0"/>
<path d="M18.3004 35.6763C16.9221 35.6763 15.8049 34.5591 15.8049 33.1808C15.8049 31.8026 16.9221 30.6853 18.3004 30.6853C19.6786 30.6853 20.7959 31.8026 20.7959 33.1808C20.7959 34.5591 19.6786 35.6763 18.3004 35.6763Z" fill="#D4D7E0"/>
<path d="M64.8203 35.6763C63.442 35.6763 62.3247 34.5591 62.3247 33.1808C62.3247 31.8026 63.442 30.6853 64.8203 30.6853C66.1985 30.6853 67.3158 31.8026 67.3158 33.1808C67.3158 34.5591 66.1985 35.6763 64.8203 35.6763Z" fill="#D4D7E0"/>
<path d="M33.765 35.6763C32.3868 35.6763 31.2695 34.5591 31.2695 33.1808C31.2695 31.8026 32.3868 30.6853 33.765 30.6853C35.1432 30.6853 36.2605 31.8026 36.2605 33.1808C36.2605 34.5591 35.1432 35.6763 33.765 35.6763Z" fill="#D4D7E0"/>
<path d="M2.77278 35.6763C1.39455 35.6763 0.277274 34.5591 0.277274 33.1808C0.277274 31.8026 1.39455 30.6853 2.77278 30.6853C4.15102 30.6853 5.26829 31.8026 5.26829 33.1808C5.26829 34.5591 4.15101 35.6763 2.77278 35.6763Z" fill="#D4D7E0"/>
<path d="M80.3478 51.0193C78.9696 51.0193 77.8523 49.902 77.8523 48.5238C77.8523 47.1456 78.9696 46.0283 80.3478 46.0283C81.7261 46.0283 82.8433 47.1456 82.8433 48.5238C82.8433 49.902 81.7261 51.0193 80.3478 51.0193Z" fill="#D4D7E0"/>
<path d="M49.2926 51.0193C47.9144 51.0193 46.7971 49.902 46.7971 48.5238C46.7971 47.1456 47.9144 46.0283 49.2926 46.0283C50.6708 46.0283 51.7881 47.1456 51.7881 48.5238C51.7881 49.902 50.6708 51.0193 49.2926 51.0193Z" fill="#D4D7E0"/>
<path d="M18.3004 51.0193C16.9221 51.0193 15.8048 49.902 15.8048 48.5238C15.8048 47.1456 16.9221 46.0283 18.3004 46.0283C19.6786 46.0283 20.7959 47.1456 20.7959 48.5238C20.7959 49.902 19.6786 51.0193 18.3004 51.0193Z" fill="#D4D7E0"/>
<path d="M80.3478 112.391C78.9696 112.391 77.8523 111.273 77.8523 109.895C77.8523 108.517 78.9696 107.4 80.3478 107.4C81.7261 107.4 82.8433 108.517 82.8433 109.895C82.8433 111.273 81.7261 112.391 80.3478 112.391Z" fill="#D4D7E0"/>
<path d="M80.3478 173.971C78.9696 173.971 77.8523 172.854 77.8523 171.476C77.8523 170.098 78.9696 168.98 80.3478 168.98C81.7261 168.98 82.8433 170.098 82.8433 171.476C82.8433 172.854 81.7261 173.971 80.3478 173.971Z" fill="#D4D7E0"/>
<path d="M49.2926 112.391C47.9144 112.391 46.7971 111.273 46.7971 109.895C46.7971 108.517 47.9144 107.4 49.2926 107.4C50.6708 107.4 51.7881 108.517 51.7881 109.895C51.7881 111.273 50.6708 112.391 49.2926 112.391Z" fill="#D4D7E0"/>
<path d="M18.3004 112.391C16.9221 112.391 15.8048 111.273 15.8048 109.895C15.8048 108.517 16.9221 107.4 18.3004 107.4C19.6786 107.4 20.7959 108.517 20.7959 109.895C20.7959 111.273 19.6786 112.391 18.3004 112.391Z" fill="#D4D7E0"/>
<path d="M49.2926 173.971C47.9144 173.971 46.7971 172.854 46.7971 171.476C46.7971 170.098 47.9144 168.98 49.2926 168.98C50.6708 168.98 51.7881 170.098 51.7881 171.476C51.7881 172.854 50.6708 173.971 49.2926 173.971Z" fill="#D4D7E0"/>
<path d="M18.3004 173.971C16.9221 173.971 15.8048 172.854 15.8048 171.476C15.8048 170.098 16.9221 168.98 18.3004 168.98C19.6786 168.98 20.7959 170.098 20.7959 171.476C20.7959 172.854 19.6786 173.971 18.3004 173.971Z" fill="#D4D7E0"/>
<path d="M64.8203 51.0193C63.442 51.0193 62.3247 49.902 62.3247 48.5238C62.3247 47.1456 63.442 46.0283 64.8203 46.0283C66.1985 46.0283 67.3158 47.1456 67.3158 48.5238C67.3158 49.902 66.1985 51.0193 64.8203 51.0193Z" fill="#D4D7E0"/>
<path d="M33.765 51.0193C32.3868 51.0193 31.2695 49.902 31.2695 48.5238C31.2695 47.1456 32.3868 46.0283 33.765 46.0283C35.1432 46.0283 36.2605 47.1456 36.2605 48.5238C36.2605 49.902 35.1432 51.0193 33.765 51.0193Z" fill="#D4D7E0"/>
<path d="M2.77278 51.0193C1.39455 51.0193 0.277273 49.902 0.277273 48.5238C0.277273 47.1456 1.39455 46.0283 2.77278 46.0283C4.15101 46.0283 5.26829 47.1456 5.26829 48.5238C5.26829 49.902 4.15101 51.0193 2.77278 51.0193Z" fill="#D4D7E0"/>
<path d="M64.8203 112.391C63.442 112.391 62.3247 111.273 62.3247 109.895C62.3247 108.517 63.442 107.4 64.8203 107.4C66.1985 107.4 67.3158 108.517 67.3158 109.895C67.3158 111.273 66.1985 112.391 64.8203 112.391Z" fill="#D4D7E0"/>
<path d="M64.8203 173.971C63.442 173.971 62.3247 172.854 62.3247 171.476C62.3247 170.098 63.442 168.98 64.8203 168.98C66.1985 168.98 67.3158 170.098 67.3158 171.476C67.3158 172.854 66.1985 173.971 64.8203 173.971Z" fill="#D4D7E0"/>
<path d="M33.765 112.391C32.3868 112.391 31.2695 111.273 31.2695 109.895C31.2695 108.517 32.3868 107.4 33.765 107.4C35.1432 107.4 36.2605 108.517 36.2605 109.895C36.2605 111.273 35.1432 112.391 33.765 112.391Z" fill="#D4D7E0"/>
<path d="M2.77278 112.391C1.39455 112.391 0.277271 111.273 0.277271 109.895C0.277271 108.517 1.39455 107.4 2.77278 107.4C4.15101 107.4 5.26829 108.517 5.26829 109.895C5.26829 111.273 4.15101 112.391 2.77278 112.391Z" fill="#D4D7E0"/>
<path d="M33.765 173.971C32.3868 173.971 31.2695 172.854 31.2695 171.476C31.2695 170.098 32.3868 168.98 33.765 168.98C35.1432 168.98 36.2605 170.098 36.2605 171.476C36.2605 172.854 35.1432 173.971 33.765 173.971Z" fill="#D4D7E0"/>
<path d="M2.77278 173.971C1.39455 173.971 0.277268 172.854 0.277268 171.476C0.277268 170.098 1.39455 168.98 2.77278 168.98C4.15101 168.98 5.26829 170.098 5.26829 171.476C5.26829 172.854 4.15101 173.971 2.77278 173.971Z" fill="#D4D7E0"/>
<path d="M80.3478 66.3623C78.9696 66.3623 77.8523 65.245 77.8523 63.8668C77.8523 62.4886 78.9696 61.3713 80.3478 61.3713C81.7261 61.3713 82.8433 62.4886 82.8433 63.8668C82.8433 65.245 81.7261 66.3623 80.3478 66.3623Z" fill="#D4D7E0"/>
<path d="M49.2926 66.3623C47.9144 66.3623 46.7971 65.245 46.7971 63.8668C46.7971 62.4886 47.9144 61.3713 49.2926 61.3713C50.6708 61.3713 51.7881 62.4886 51.7881 63.8668C51.7881 65.245 50.6708 66.3623 49.2926 66.3623Z" fill="#D4D7E0"/>
<path d="M18.3004 66.3623C16.9221 66.3623 15.8048 65.245 15.8048 63.8668C15.8048 62.4886 16.9221 61.3713 18.3004 61.3713C19.6786 61.3713 20.7959 62.4886 20.7959 63.8668C20.7959 65.245 19.6786 66.3623 18.3004 66.3623Z" fill="#D4D7E0"/>
<path d="M80.3478 127.734C78.9696 127.734 77.8523 126.616 77.8523 125.238C77.8523 123.86 78.9696 122.743 80.3478 122.743C81.7261 122.743 82.8433 123.86 82.8433 125.238C82.8433 126.616 81.7261 127.734 80.3478 127.734Z" fill="#D4D7E0"/>
<path d="M80.3478 189.314C78.9696 189.314 77.8523 188.197 77.8523 186.819C77.8523 185.441 78.9696 184.323 80.3478 184.323C81.7261 184.323 82.8433 185.441 82.8433 186.819C82.8433 188.197 81.7261 189.314 80.3478 189.314Z" fill="#D4D7E0"/>
<path d="M49.2926 127.734C47.9144 127.734 46.7971 126.616 46.7971 125.238C46.7971 123.86 47.9144 122.743 49.2926 122.743C50.6708 122.743 51.7881 123.86 51.7881 125.238C51.7881 126.616 50.6708 127.734 49.2926 127.734Z" fill="#D4D7E0"/>
<path d="M18.3004 127.734C16.9221 127.734 15.8048 126.616 15.8048 125.238C15.8048 123.86 16.9221 122.743 18.3004 122.743C19.6786 122.743 20.7959 123.86 20.7959 125.238C20.7959 126.616 19.6786 127.734 18.3004 127.734Z" fill="#D4D7E0"/>
<path d="M49.2926 189.314C47.9144 189.314 46.7971 188.197 46.7971 186.819C46.7971 185.441 47.9144 184.323 49.2926 184.323C50.6708 184.323 51.7881 185.441 51.7881 186.819C51.7881 188.197 50.6708 189.314 49.2926 189.314Z" fill="#D4D7E0"/>
<path d="M18.3004 189.314C16.9221 189.314 15.8048 188.197 15.8048 186.819C15.8048 185.441 16.9221 184.323 18.3004 184.323C19.6786 184.323 20.7959 185.441 20.7959 186.819C20.7959 188.197 19.6786 189.314 18.3004 189.314Z" fill="#D4D7E0"/>
<path d="M64.8203 66.3623C63.442 66.3623 62.3247 65.245 62.3247 63.8668C62.3247 62.4886 63.442 61.3713 64.8203 61.3713C66.1985 61.3713 67.3158 62.4886 67.3158 63.8668C67.3158 65.245 66.1985 66.3623 64.8203 66.3623Z" fill="#D4D7E0"/>
<path d="M33.765 66.3623C32.3868 66.3623 31.2695 65.245 31.2695 63.8668C31.2695 62.4886 32.3868 61.3713 33.765 61.3713C35.1432 61.3713 36.2605 62.4886 36.2605 63.8668C36.2605 65.245 35.1432 66.3623 33.765 66.3623Z" fill="#D4D7E0"/>
<path d="M2.77278 66.3623C1.39455 66.3623 0.277273 65.245 0.277273 63.8668C0.277273 62.4886 1.39455 61.3713 2.77278 61.3713C4.15101 61.3713 5.26829 62.4886 5.26829 63.8668C5.26829 65.245 4.15101 66.3623 2.77278 66.3623Z" fill="#D4D7E0"/>
<path d="M64.8203 127.734C63.442 127.734 62.3247 126.616 62.3247 125.238C62.3247 123.86 63.442 122.743 64.8203 122.743C66.1985 122.743 67.3158 123.86 67.3158 125.238C67.3158 126.616 66.1985 127.734 64.8203 127.734Z" fill="#D4D7E0"/>
<path d="M64.8203 189.314C63.442 189.314 62.3247 188.197 62.3247 186.819C62.3247 185.441 63.442 184.323 64.8203 184.323C66.1985 184.323 67.3158 185.441 67.3158 186.819C67.3158 188.197 66.1985 189.314 64.8203 189.314Z" fill="#D4D7E0"/>
<path d="M33.765 127.734C32.3868 127.734 31.2695 126.616 31.2695 125.238C31.2695 123.86 32.3868 122.743 33.765 122.743C35.1432 122.743 36.2605 123.86 36.2605 125.238C36.2605 126.616 35.1432 127.734 33.765 127.734Z" fill="#D4D7E0"/>
<path d="M2.77278 127.734C1.39455 127.734 0.27727 126.616 0.27727 125.238C0.27727 123.86 1.39455 122.743 2.77278 122.743C4.15101 122.743 5.26829 123.86 5.26829 125.238C5.26829 126.616 4.15101 127.734 2.77278 127.734Z" fill="#D4D7E0"/>
<path d="M33.765 189.314C32.3868 189.314 31.2695 188.197 31.2695 186.819C31.2695 185.441 32.3868 184.323 33.765 184.323C35.1432 184.323 36.2605 185.441 36.2605 186.819C36.2605 188.197 35.1432 189.314 33.765 189.314Z" fill="#D4D7E0"/>
<path d="M2.77278 189.314C1.39454 189.314 0.277267 188.197 0.277267 186.819C0.277267 185.441 1.39455 184.323 2.77278 184.323C4.15101 184.323 5.26829 185.441 5.26829 186.819C5.26829 188.197 4.15101 189.314 2.77278 189.314Z" fill="#D4D7E0"/>
<path d="M80.3478 81.7053C78.9696 81.7053 77.8523 80.588 77.8523 79.2098C77.8523 77.8315 78.9696 76.7142 80.3478 76.7142C81.7261 76.7142 82.8433 77.8315 82.8433 79.2098C82.8433 80.588 81.7261 81.7053 80.3478 81.7053Z" fill="#D4D7E0"/>
<path d="M49.2926 81.7053C47.9144 81.7053 46.7971 80.588 46.7971 79.2098C46.7971 77.8315 47.9144 76.7142 49.2926 76.7142C50.6708 76.7142 51.7881 77.8315 51.7881 79.2098C51.7881 80.588 50.6708 81.7053 49.2926 81.7053Z" fill="#D4D7E0"/>
<path d="M18.3004 81.7053C16.9221 81.7053 15.8048 80.588 15.8048 79.2098C15.8048 77.8315 16.9221 76.7142 18.3004 76.7142C19.6786 76.7142 20.7959 77.8315 20.7959 79.2098C20.7959 80.588 19.6786 81.7053 18.3004 81.7053Z" fill="#D4D7E0"/>
<path d="M80.3478 143.077C78.9696 143.077 77.8523 141.959 77.8523 140.581C77.8523 139.203 78.9696 138.086 80.3478 138.086C81.7261 138.086 82.8433 139.203 82.8433 140.581C82.8433 141.959 81.7261 143.077 80.3478 143.077Z" fill="#D4D7E0"/>
<path d="M80.3478 204.657C78.9696 204.657 77.8523 203.54 77.8523 202.162C77.8523 200.784 78.9696 199.666 80.3478 199.666C81.7261 199.666 82.8433 200.784 82.8433 202.162C82.8433 203.54 81.7261 204.657 80.3478 204.657Z" fill="#D4D7E0"/>
<path d="M49.2926 143.077C47.9144 143.077 46.7971 141.959 46.7971 140.581C46.7971 139.203 47.9144 138.086 49.2926 138.086C50.6708 138.086 51.7881 139.203 51.7881 140.581C51.7881 141.959 50.6708 143.077 49.2926 143.077Z" fill="#D4D7E0"/>
<path d="M18.3004 143.077C16.9221 143.077 15.8048 141.959 15.8048 140.581C15.8048 139.203 16.9221 138.086 18.3004 138.086C19.6786 138.086 20.7959 139.203 20.7959 140.581C20.7959 141.959 19.6786 143.077 18.3004 143.077Z" fill="#D4D7E0"/>
<path d="M49.2926 204.657C47.9144 204.657 46.7971 203.54 46.7971 202.162C46.7971 200.784 47.9144 199.666 49.2926 199.666C50.6708 199.666 51.7881 200.784 51.7881 202.162C51.7881 203.54 50.6708 204.657 49.2926 204.657Z" fill="#D4D7E0"/>
<path d="M18.3004 204.657C16.9221 204.657 15.8048 203.54 15.8048 202.162C15.8048 200.784 16.9221 199.666 18.3004 199.666C19.6786 199.666 20.7959 200.784 20.7959 202.162C20.7959 203.54 19.6786 204.657 18.3004 204.657Z" fill="#D4D7E0"/>
<path d="M64.8203 81.7053C63.442 81.7053 62.3247 80.588 62.3247 79.2098C62.3247 77.8315 63.442 76.7142 64.8203 76.7142C66.1985 76.7142 67.3158 77.8315 67.3158 79.2098C67.3158 80.588 66.1985 81.7053 64.8203 81.7053Z" fill="#D4D7E0"/>
<path d="M33.765 81.7053C32.3868 81.7053 31.2695 80.588 31.2695 79.2098C31.2695 77.8315 32.3868 76.7142 33.765 76.7142C35.1432 76.7142 36.2605 77.8315 36.2605 79.2098C36.2605 80.588 35.1432 81.7053 33.765 81.7053Z" fill="#D4D7E0"/>
<path d="M2.77278 81.7053C1.39455 81.7053 0.277272 80.588 0.277272 79.2098C0.277272 77.8315 1.39455 76.7142 2.77278 76.7142C4.15101 76.7142 5.26829 77.8315 5.26829 79.2098C5.26829 80.588 4.15101 81.7053 2.77278 81.7053Z" fill="#D4D7E0"/>
<path d="M64.8203 143.077C63.442 143.077 62.3247 141.959 62.3247 140.581C62.3247 139.203 63.442 138.086 64.8203 138.086C66.1985 138.086 67.3158 139.203 67.3158 140.581C67.3158 141.959 66.1985 143.077 64.8203 143.077Z" fill="#D4D7E0"/>
<path d="M64.8203 204.657C63.442 204.657 62.3247 203.54 62.3247 202.162C62.3247 200.784 63.442 199.666 64.8203 199.666C66.1985 199.666 67.3158 200.784 67.3158 202.162C67.3158 203.54 66.1985 204.657 64.8203 204.657Z" fill="#D4D7E0"/>
<path d="M33.765 143.077C32.3868 143.077 31.2695 141.959 31.2695 140.581C31.2695 139.203 32.3868 138.086 33.765 138.086C35.1432 138.086 36.2605 139.203 36.2605 140.581C36.2605 141.959 35.1432 143.077 33.765 143.077Z" fill="#D4D7E0"/>
<path d="M2.77278 143.077C1.39455 143.077 0.277269 141.959 0.277269 140.581C0.277269 139.203 1.39455 138.086 2.77278 138.086C4.15101 138.086 5.26829 139.203 5.26829 140.581C5.26829 141.959 4.15101 143.077 2.77278 143.077Z" fill="#D4D7E0"/>
<path d="M33.765 204.657C32.3868 204.657 31.2695 203.54 31.2695 202.162C31.2695 200.784 32.3868 199.666 33.765 199.666C35.1432 199.666 36.2605 200.784 36.2605 202.162C36.2605 203.54 35.1432 204.657 33.765 204.657Z" fill="#D4D7E0"/>
<path d="M2.77278 204.657C1.39454 204.657 0.277267 203.54 0.277267 202.162C0.277267 200.784 1.39454 199.666 2.77278 199.666C4.15101 199.666 5.26829 200.784 5.26829 202.162C5.26829 203.54 4.15101 204.657 2.77278 204.657Z" fill="#D4D7E0"/>
<path d="M80.3478 97.0479C78.9696 97.0479 77.8523 95.9307 77.8523 94.5524C77.8523 93.1742 78.9696 92.0569 80.3478 92.0569C81.7261 92.0569 82.8433 93.1742 82.8433 94.5524C82.8433 95.9307 81.7261 97.0479 80.3478 97.0479Z" fill="#D4D7E0"/>
<path d="M49.2926 97.0479C47.9144 97.0479 46.7971 95.9307 46.7971 94.5524C46.7971 93.1742 47.9144 92.0569 49.2926 92.0569C50.6708 92.0569 51.7881 93.1742 51.7881 94.5524C51.7881 95.9307 50.6708 97.0479 49.2926 97.0479Z" fill="#D4D7E0"/>
<path d="M18.3004 97.0479C16.9221 97.0479 15.8048 95.9307 15.8048 94.5524C15.8048 93.1742 16.9221 92.0569 18.3004 92.0569C19.6786 92.0569 20.7959 93.1742 20.7959 94.5524C20.7959 95.9307 19.6786 97.0479 18.3004 97.0479Z" fill="#D4D7E0"/>
<path d="M80.3478 158.419C78.9696 158.419 77.8523 157.302 77.8523 155.924C77.8523 154.545 78.9696 153.428 80.3478 153.428C81.7261 153.428 82.8433 154.545 82.8433 155.924C82.8433 157.302 81.7261 158.419 80.3478 158.419Z" fill="#D4D7E0"/>
<path d="M80.3478 220C78.9696 220 77.8523 218.883 77.8523 217.504C77.8523 216.126 78.9696 215.009 80.3478 215.009C81.7261 215.009 82.8433 216.126 82.8433 217.504C82.8433 218.883 81.7261 220 80.3478 220Z" fill="#D4D7E0"/>
<path d="M49.2926 158.419C47.9144 158.419 46.7971 157.302 46.7971 155.924C46.7971 154.545 47.9144 153.428 49.2926 153.428C50.6708 153.428 51.7881 154.545 51.7881 155.924C51.7881 157.302 50.6708 158.419 49.2926 158.419Z" fill="#D4D7E0"/>
<path d="M18.3004 158.419C16.9221 158.419 15.8048 157.302 15.8048 155.924C15.8048 154.545 16.9221 153.428 18.3004 153.428C19.6786 153.428 20.7959 154.545 20.7959 155.924C20.7959 157.302 19.6786 158.419 18.3004 158.419Z" fill="#D4D7E0"/>
<path d="M49.2926 220C47.9144 220 46.7971 218.883 46.7971 217.504C46.7971 216.126 47.9144 215.009 49.2926 215.009C50.6708 215.009 51.7881 216.126 51.7881 217.504C51.7881 218.883 50.6708 220 49.2926 220Z" fill="#D4D7E0"/>
<path d="M18.3004 220C16.9221 220 15.8048 218.883 15.8048 217.504C15.8048 216.126 16.9221 215.009 18.3004 215.009C19.6786 215.009 20.7959 216.126 20.7959 217.504C20.7959 218.883 19.6786 220 18.3004 220Z" fill="#D4D7E0"/>
<path d="M64.543 97.0479C63.1648 97.0479 62.0475 95.9307 62.0475 94.5524C62.0475 93.1742 63.1648 92.0569 64.543 92.0569C65.9212 92.0569 67.0385 93.1742 67.0385 94.5524C67.0385 95.9307 65.9212 97.0479 64.543 97.0479Z" fill="#D4D7E0"/>
<path d="M33.4877 97.0479C32.1095 97.0479 30.9922 95.9307 30.9922 94.5524C30.9922 93.1742 32.1095 92.0569 33.4877 92.0569C34.866 92.0569 35.9833 93.1742 35.9833 94.5524C35.9833 95.9307 34.866 97.0479 33.4877 97.0479Z" fill="#D4D7E0"/>
<path d="M2.49551 97.0479C1.11728 97.0479 5.31416e-06 95.9307 5.37441e-06 94.5524C5.43465e-06 93.1742 1.11728 92.0569 2.49551 92.0569C3.87375 92.0569 4.99102 93.1742 4.99102 94.5524C4.99102 95.9307 3.87375 97.0479 2.49551 97.0479Z" fill="#D4D7E0"/>
<path d="M64.543 158.419C63.1648 158.419 62.0475 157.302 62.0475 155.924C62.0475 154.545 63.1648 153.428 64.543 153.428C65.9212 153.428 67.0385 154.545 67.0385 155.924C67.0385 157.302 65.9212 158.419 64.543 158.419Z" fill="#D4D7E0"/>
<path d="M64.543 220C63.1648 220 62.0475 218.883 62.0475 217.504C62.0475 216.126 63.1648 215.009 64.543 215.009C65.9212 215.009 67.0385 216.126 67.0385 217.504C67.0385 218.883 65.9212 220 64.543 220Z" fill="#D4D7E0"/>
<path d="M33.4877 158.419C32.1095 158.419 30.9922 157.302 30.9922 155.924C30.9922 154.545 32.1095 153.428 33.4877 153.428C34.866 153.428 35.9833 154.545 35.9833 155.924C35.9833 157.302 34.866 158.419 33.4877 158.419Z" fill="#D4D7E0"/>
<path d="M2.49551 158.419C1.11728 158.419 2.63154e-06 157.302 2.69178e-06 155.924C2.75203e-06 154.545 1.11728 153.428 2.49551 153.428C3.87374 153.428 4.99102 154.545 4.99102 155.924C4.99102 157.302 3.87374 158.419 2.49551 158.419Z" fill="#D4D7E0"/>
<path d="M33.4877 220C32.1095 220 30.9922 218.883 30.9922 217.504C30.9922 216.126 32.1095 215.009 33.4877 215.009C34.866 215.009 35.9832 216.126 35.9832 217.504C35.9832 218.883 34.866 220 33.4877 220Z" fill="#D4D7E0"/>
<path d="M2.49551 220C1.11728 220 -6.02444e-08 218.883 0 217.504C6.02444e-08 216.126 1.11728 215.009 2.49551 215.009C3.87374 215.009 4.99102 216.126 4.99102 217.504C4.99102 218.883 3.87374 220 2.49551 220Z" fill="#D4D7E0"/>
<path d="M173.848 4.99102C172.47 4.99102 171.352 3.87374 171.352 2.49551C171.352 1.11728 172.47 3.33067e-06 173.848 3.39091e-06C175.226 3.45116e-06 176.343 1.11728 176.343 2.49551C176.343 3.87374 175.226 4.99102 173.848 4.99102Z" fill="#D4D7E0"/>
<path d="M142.793 4.99102C141.414 4.99102 140.297 3.87374 140.297 2.49551C140.297 1.11728 141.414 1.9732e-06 142.793 2.03345e-06C144.171 2.09369e-06 145.288 1.11728 145.288 2.49551C145.288 3.87374 144.171 4.99102 142.793 4.99102Z" fill="#D4D7E0"/>
<path d="M111.8 4.99102C110.422 4.99102 109.305 3.87374 109.305 2.49551C109.305 1.11728 110.422 6.18487e-07 111.8 6.78732e-07C113.179 7.38976e-07 114.296 1.11728 114.296 2.49551C114.296 3.87374 113.179 4.99102 111.8 4.99102Z" fill="#D4D7E0"/>
<path d="M158.32 4.99102C156.942 4.99102 155.825 3.87374 155.825 2.49551C155.825 1.11728 156.942 2.65194e-06 158.32 2.71218e-06C159.698 2.77243e-06 160.816 1.11728 160.816 2.49551C160.816 3.87374 159.698 4.99102 158.32 4.99102Z" fill="#D4D7E0"/>
<path d="M127.265 4.99102C125.887 4.99102 124.77 3.87374 124.77 2.49551C124.77 1.11728 125.887 1.29447e-06 127.265 1.35471e-06C128.643 1.41496e-06 129.761 1.11728 129.761 2.49551C129.761 3.87374 128.643 4.99102 127.265 4.99102Z" fill="#D4D7E0"/>
<path d="M96.2728 4.99102C94.8946 4.99102 93.7773 3.87374 93.7773 2.49551C93.7773 1.11728 94.8946 -6.02444e-08 96.2728 0C97.651 6.02444e-08 98.7683 1.11728 98.7683 2.49551C98.7683 3.87374 97.651 4.99102 96.2728 4.99102Z" fill="#D4D7E0"/>
<path d="M173.848 20.3337C172.47 20.3337 171.352 19.2164 171.352 17.8382C171.352 16.4599 172.47 15.3427 173.848 15.3427C175.226 15.3427 176.343 16.4599 176.343 17.8382C176.343 19.2164 175.226 20.3337 173.848 20.3337Z" fill="#D4D7E0"/>
<path d="M142.793 20.3337C141.414 20.3337 140.297 19.2164 140.297 17.8382C140.297 16.4599 141.414 15.3427 142.793 15.3427C144.171 15.3427 145.288 16.4599 145.288 17.8382C145.288 19.2164 144.171 20.3337 142.793 20.3337Z" fill="#D4D7E0"/>
<path d="M111.8 20.3337C110.422 20.3337 109.305 19.2164 109.305 17.8382C109.305 16.4599 110.422 15.3427 111.8 15.3427C113.179 15.3427 114.296 16.4599 114.296 17.8382C114.296 19.2164 113.179 20.3337 111.8 20.3337Z" fill="#D4D7E0"/>
<path d="M158.32 20.3337C156.942 20.3337 155.825 19.2164 155.825 17.8382C155.825 16.4599 156.942 15.3427 158.32 15.3427C159.698 15.3427 160.816 16.4599 160.816 17.8382C160.816 19.2164 159.698 20.3337 158.32 20.3337Z" fill="#D4D7E0"/>
<path d="M127.265 20.3337C125.887 20.3337 124.77 19.2164 124.77 17.8382C124.77 16.4599 125.887 15.3427 127.265 15.3427C128.643 15.3427 129.761 16.4599 129.761 17.8382C129.761 19.2164 128.643 20.3337 127.265 20.3337Z" fill="#D4D7E0"/>
<path d="M96.2728 20.3337C94.8946 20.3337 93.7773 19.2164 93.7773 17.8382C93.7773 16.4599 94.8946 15.3427 96.2728 15.3427C97.651 15.3427 98.7683 16.4599 98.7683 17.8382C98.7683 19.2164 97.651 20.3337 96.2728 20.3337Z" fill="#D4D7E0"/>
<path d="M173.848 35.6763C172.47 35.6763 171.352 34.5591 171.352 33.1808C171.352 31.8026 172.47 30.6853 173.848 30.6853C175.226 30.6853 176.343 31.8026 176.343 33.1808C176.343 34.5591 175.226 35.6763 173.848 35.6763Z" fill="#D4D7E0"/>
<path d="M142.793 35.6763C141.414 35.6763 140.297 34.5591 140.297 33.1808C140.297 31.8026 141.414 30.6853 142.793 30.6853C144.171 30.6853 145.288 31.8026 145.288 33.1808C145.288 34.5591 144.171 35.6763 142.793 35.6763Z" fill="#D4D7E0"/>
<path d="M111.8 35.6763C110.422 35.6763 109.305 34.5591 109.305 33.1808C109.305 31.8026 110.422 30.6853 111.8 30.6853C113.179 30.6853 114.296 31.8026 114.296 33.1808C114.296 34.5591 113.179 35.6763 111.8 35.6763Z" fill="#D4D7E0"/>
<path d="M158.32 35.6763C156.942 35.6763 155.825 34.5591 155.825 33.1808C155.825 31.8026 156.942 30.6853 158.32 30.6853C159.698 30.6853 160.816 31.8026 160.816 33.1808C160.816 34.5591 159.698 35.6763 158.32 35.6763Z" fill="#D4D7E0"/>
<path d="M127.265 35.6763C125.887 35.6763 124.77 34.5591 124.77 33.1808C124.77 31.8026 125.887 30.6853 127.265 30.6853C128.643 30.6853 129.761 31.8026 129.761 33.1808C129.761 34.5591 128.643 35.6763 127.265 35.6763Z" fill="#D4D7E0"/>
<path d="M96.2728 35.6763C94.8946 35.6763 93.7773 34.5591 93.7773 33.1808C93.7773 31.8026 94.8946 30.6853 96.2728 30.6853C97.651 30.6853 98.7683 31.8026 98.7683 33.1808C98.7683 34.5591 97.651 35.6763 96.2728 35.6763Z" fill="#D4D7E0"/>
<path d="M173.848 51.0193C172.47 51.0193 171.352 49.902 171.352 48.5238C171.352 47.1456 172.47 46.0283 173.848 46.0283C175.226 46.0283 176.343 47.1456 176.343 48.5238C176.343 49.902 175.226 51.0193 173.848 51.0193Z" fill="#D4D7E0"/>
<path d="M142.793 51.0193C141.414 51.0193 140.297 49.902 140.297 48.5238C140.297 47.1456 141.414 46.0283 142.793 46.0283C144.171 46.0283 145.288 47.1456 145.288 48.5238C145.288 49.902 144.171 51.0193 142.793 51.0193Z" fill="#D4D7E0"/>
<path d="M111.8 51.0193C110.422 51.0193 109.305 49.902 109.305 48.5238C109.305 47.1456 110.422 46.0283 111.8 46.0283C113.179 46.0283 114.296 47.1456 114.296 48.5238C114.296 49.902 113.179 51.0193 111.8 51.0193Z" fill="#D4D7E0"/>
<path d="M173.848 112.391C172.47 112.391 171.352 111.273 171.352 109.895C171.352 108.517 172.47 107.4 173.848 107.4C175.226 107.4 176.343 108.517 176.343 109.895C176.343 111.273 175.226 112.391 173.848 112.391Z" fill="#D4D7E0"/>
<path d="M173.848 173.971C172.47 173.971 171.352 172.854 171.352 171.476C171.352 170.098 172.47 168.98 173.848 168.98C175.226 168.98 176.343 170.098 176.343 171.476C176.343 172.854 175.226 173.971 173.848 173.971Z" fill="#D4D7E0"/>
<path d="M142.793 112.391C141.414 112.391 140.297 111.273 140.297 109.895C140.297 108.517 141.414 107.4 142.793 107.4C144.171 107.4 145.288 108.517 145.288 109.895C145.288 111.273 144.171 112.391 142.793 112.391Z" fill="#D4D7E0"/>
<path d="M111.8 112.391C110.422 112.391 109.305 111.273 109.305 109.895C109.305 108.517 110.422 107.4 111.8 107.4C113.179 107.4 114.296 108.517 114.296 109.895C114.296 111.273 113.179 112.391 111.8 112.391Z" fill="#D4D7E0"/>
<path d="M142.793 173.971C141.414 173.971 140.297 172.854 140.297 171.476C140.297 170.098 141.414 168.98 142.793 168.98C144.171 168.98 145.288 170.098 145.288 171.476C145.288 172.854 144.171 173.971 142.793 173.971Z" fill="#D4D7E0"/>
<path d="M111.8 173.971C110.422 173.971 109.305 172.854 109.305 171.476C109.305 170.098 110.422 168.98 111.8 168.98C113.179 168.98 114.296 170.098 114.296 171.476C114.296 172.854 113.179 173.971 111.8 173.971Z" fill="#D4D7E0"/>
<path d="M158.32 51.0193C156.942 51.0193 155.825 49.902 155.825 48.5238C155.825 47.1456 156.942 46.0283 158.32 46.0283C159.698 46.0283 160.816 47.1456 160.816 48.5238C160.816 49.902 159.698 51.0193 158.32 51.0193Z" fill="#D4D7E0"/>
<path d="M127.265 51.0193C125.887 51.0193 124.77 49.902 124.77 48.5238C124.77 47.1456 125.887 46.0283 127.265 46.0283C128.643 46.0283 129.761 47.1456 129.761 48.5238C129.761 49.902 128.643 51.0193 127.265 51.0193Z" fill="#D4D7E0"/>
<path d="M96.2728 51.0193C94.8946 51.0193 93.7773 49.902 93.7773 48.5238C93.7773 47.1456 94.8946 46.0283 96.2728 46.0283C97.651 46.0283 98.7683 47.1456 98.7683 48.5238C98.7683 49.902 97.651 51.0193 96.2728 51.0193Z" fill="#D4D7E0"/>
<path d="M158.32 112.391C156.942 112.391 155.825 111.273 155.825 109.895C155.825 108.517 156.942 107.4 158.32 107.4C159.698 107.4 160.816 108.517 160.816 109.895C160.816 111.273 159.698 112.391 158.32 112.391Z" fill="#D4D7E0"/>
<path d="M158.32 173.971C156.942 173.971 155.825 172.854 155.825 171.476C155.825 170.098 156.942 168.98 158.32 168.98C159.698 168.98 160.816 170.098 160.816 171.476C160.816 172.854 159.698 173.971 158.32 173.971Z" fill="#D4D7E0"/>
<path d="M127.265 112.391C125.887 112.391 124.769 111.273 124.769 109.895C124.769 108.517 125.887 107.4 127.265 107.4C128.643 107.4 129.761 108.517 129.761 109.895C129.761 111.273 128.643 112.391 127.265 112.391Z" fill="#D4D7E0"/>
<path d="M96.2728 112.391C94.8945 112.391 93.7773 111.273 93.7773 109.895C93.7773 108.517 94.8945 107.4 96.2728 107.4C97.651 107.4 98.7683 108.517 98.7683 109.895C98.7683 111.273 97.651 112.391 96.2728 112.391Z" fill="#D4D7E0"/>
<path d="M127.265 173.971C125.887 173.971 124.769 172.854 124.769 171.476C124.769 170.098 125.887 168.98 127.265 168.98C128.643 168.98 129.761 170.098 129.761 171.476C129.761 172.854 128.643 173.971 127.265 173.971Z" fill="#D4D7E0"/>
<path d="M96.2728 173.971C94.8945 173.971 93.7773 172.854 93.7773 171.476C93.7773 170.098 94.8945 168.98 96.2728 168.98C97.651 168.98 98.7683 170.098 98.7683 171.476C98.7683 172.854 97.651 173.971 96.2728 173.971Z" fill="#D4D7E0"/>
<path d="M173.848 66.3623C172.47 66.3623 171.352 65.245 171.352 63.8668C171.352 62.4886 172.47 61.3713 173.848 61.3713C175.226 61.3713 176.343 62.4886 176.343 63.8668C176.343 65.245 175.226 66.3623 173.848 66.3623Z" fill="#D4D7E0"/>
<path d="M142.793 66.3623C141.414 66.3623 140.297 65.245 140.297 63.8668C140.297 62.4886 141.414 61.3713 142.793 61.3713C144.171 61.3713 145.288 62.4886 145.288 63.8668C145.288 65.245 144.171 66.3623 142.793 66.3623Z" fill="#D4D7E0"/>
<path d="M111.8 66.3623C110.422 66.3623 109.305 65.245 109.305 63.8668C109.305 62.4886 110.422 61.3713 111.8 61.3713C113.179 61.3713 114.296 62.4886 114.296 63.8668C114.296 65.245 113.179 66.3623 111.8 66.3623Z" fill="#D4D7E0"/>
<path d="M173.848 127.734C172.47 127.734 171.352 126.616 171.352 125.238C171.352 123.86 172.47 122.743 173.848 122.743C175.226 122.743 176.343 123.86 176.343 125.238C176.343 126.616 175.226 127.734 173.848 127.734Z" fill="#D4D7E0"/>
<path d="M173.848 189.314C172.47 189.314 171.352 188.197 171.352 186.819C171.352 185.441 172.47 184.323 173.848 184.323C175.226 184.323 176.343 185.441 176.343 186.819C176.343 188.197 175.226 189.314 173.848 189.314Z" fill="#D4D7E0"/>
<path d="M142.793 127.734C141.414 127.734 140.297 126.616 140.297 125.238C140.297 123.86 141.414 122.743 142.793 122.743C144.171 122.743 145.288 123.86 145.288 125.238C145.288 126.616 144.171 127.734 142.793 127.734Z" fill="#D4D7E0"/>
<path d="M111.8 127.734C110.422 127.734 109.305 126.616 109.305 125.238C109.305 123.86 110.422 122.743 111.8 122.743C113.179 122.743 114.296 123.86 114.296 125.238C114.296 126.616 113.179 127.734 111.8 127.734Z" fill="#D4D7E0"/>
<path d="M142.793 189.314C141.414 189.314 140.297 188.197 140.297 186.819C140.297 185.441 141.414 184.323 142.793 184.323C144.171 184.323 145.288 185.441 145.288 186.819C145.288 188.197 144.171 189.314 142.793 189.314Z" fill="#D4D7E0"/>
<path d="M111.8 189.314C110.422 189.314 109.305 188.197 109.305 186.819C109.305 185.441 110.422 184.323 111.8 184.323C113.179 184.323 114.296 185.441 114.296 186.819C114.296 188.197 113.179 189.314 111.8 189.314Z" fill="#D4D7E0"/>
<path d="M158.32 66.3623C156.942 66.3623 155.825 65.245 155.825 63.8668C155.825 62.4886 156.942 61.3713 158.32 61.3713C159.698 61.3713 160.816 62.4886 160.816 63.8668C160.816 65.245 159.698 66.3623 158.32 66.3623Z" fill="#D4D7E0"/>
<path d="M127.265 66.3623C125.887 66.3623 124.769 65.245 124.769 63.8668C124.769 62.4886 125.887 61.3713 127.265 61.3713C128.643 61.3713 129.761 62.4886 129.761 63.8668C129.761 65.245 128.643 66.3623 127.265 66.3623Z" fill="#D4D7E0"/>
<path d="M96.2728 66.3623C94.8946 66.3623 93.7773 65.245 93.7773 63.8668C93.7773 62.4886 94.8946 61.3713 96.2728 61.3713C97.651 61.3713 98.7683 62.4886 98.7683 63.8668C98.7683 65.245 97.651 66.3623 96.2728 66.3623Z" fill="#D4D7E0"/>
<path d="M158.32 127.734C156.942 127.734 155.825 126.616 155.825 125.238C155.825 123.86 156.942 122.743 158.32 122.743C159.698 122.743 160.816 123.86 160.816 125.238C160.816 126.616 159.698 127.734 158.32 127.734Z" fill="#D4D7E0"/>
<path d="M158.32 189.314C156.942 189.314 155.825 188.197 155.825 186.819C155.825 185.441 156.942 184.323 158.32 184.323C159.698 184.323 160.816 185.441 160.816 186.819C160.816 188.197 159.698 189.314 158.32 189.314Z" fill="#D4D7E0"/>
<path d="M127.265 127.734C125.887 127.734 124.769 126.616 124.769 125.238C124.769 123.86 125.887 122.743 127.265 122.743C128.643 122.743 129.761 123.86 129.761 125.238C129.761 126.616 128.643 127.734 127.265 127.734Z" fill="#D4D7E0"/>
<path d="M96.2728 127.734C94.8945 127.734 93.7773 126.616 93.7773 125.238C93.7773 123.86 94.8945 122.743 96.2728 122.743C97.651 122.743 98.7683 123.86 98.7683 125.238C98.7683 126.616 97.651 127.734 96.2728 127.734Z" fill="#D4D7E0"/>
<path d="M127.265 189.314C125.887 189.314 124.769 188.197 124.769 186.819C124.769 185.441 125.887 184.323 127.265 184.323C128.643 184.323 129.761 185.441 129.761 186.819C129.761 188.197 128.643 189.314 127.265 189.314Z" fill="#D4D7E0"/>
<path d="M96.2728 189.314C94.8945 189.314 93.7773 188.197 93.7773 186.819C93.7773 185.441 94.8945 184.323 96.2728 184.323C97.651 184.323 98.7683 185.441 98.7683 186.819C98.7683 188.197 97.651 189.314 96.2728 189.314Z" fill="#D4D7E0"/>
<path d="M173.848 81.7053C172.47 81.7053 171.352 80.588 171.352 79.2098C171.352 77.8315 172.47 76.7142 173.848 76.7142C175.226 76.7142 176.343 77.8315 176.343 79.2098C176.343 80.588 175.226 81.7053 173.848 81.7053Z" fill="#D4D7E0"/>
<path d="M142.793 81.7053C141.414 81.7053 140.297 80.588 140.297 79.2098C140.297 77.8315 141.414 76.7142 142.793 76.7142C144.171 76.7142 145.288 77.8315 145.288 79.2098C145.288 80.588 144.171 81.7053 142.793 81.7053Z" fill="#D4D7E0"/>
<path d="M111.8 81.7053C110.422 81.7053 109.305 80.588 109.305 79.2098C109.305 77.8315 110.422 76.7142 111.8 76.7142C113.179 76.7142 114.296 77.8315 114.296 79.2098C114.296 80.588 113.179 81.7053 111.8 81.7053Z" fill="#D4D7E0"/>
<path d="M173.848 143.077C172.47 143.077 171.352 141.959 171.352 140.581C171.352 139.203 172.47 138.086 173.848 138.086C175.226 138.086 176.343 139.203 176.343 140.581C176.343 141.959 175.226 143.077 173.848 143.077Z" fill="#D4D7E0"/>
<path d="M173.848 204.657C172.47 204.657 171.352 203.54 171.352 202.162C171.352 200.784 172.47 199.666 173.848 199.666C175.226 199.666 176.343 200.784 176.343 202.162C176.343 203.54 175.226 204.657 173.848 204.657Z" fill="#D4D7E0"/>
<path d="M142.793 143.077C141.414 143.077 140.297 141.959 140.297 140.581C140.297 139.203 141.414 138.086 142.793 138.086C144.171 138.086 145.288 139.203 145.288 140.581C145.288 141.959 144.171 143.077 142.793 143.077Z" fill="#D4D7E0"/>
<path d="M111.8 143.077C110.422 143.077 109.305 141.959 109.305 140.581C109.305 139.203 110.422 138.086 111.8 138.086C113.179 138.086 114.296 139.203 114.296 140.581C114.296 141.959 113.179 143.077 111.8 143.077Z" fill="#D4D7E0"/>
<path d="M142.793 204.657C141.414 204.657 140.297 203.54 140.297 202.162C140.297 200.784 141.414 199.666 142.793 199.666C144.171 199.666 145.288 200.784 145.288 202.162C145.288 203.54 144.171 204.657 142.793 204.657Z" fill="#D4D7E0"/>
<path d="M111.8 204.657C110.422 204.657 109.305 203.54 109.305 202.162C109.305 200.784 110.422 199.666 111.8 199.666C113.179 199.666 114.296 200.784 114.296 202.162C114.296 203.54 113.179 204.657 111.8 204.657Z" fill="#D4D7E0"/>
<path d="M158.32 81.7053C156.942 81.7053 155.825 80.588 155.825 79.2098C155.825 77.8315 156.942 76.7142 158.32 76.7142C159.698 76.7142 160.816 77.8315 160.816 79.2098C160.816 80.588 159.698 81.7053 158.32 81.7053Z" fill="#D4D7E0"/>
<path d="M127.265 81.7053C125.887 81.7053 124.769 80.588 124.769 79.2098C124.769 77.8315 125.887 76.7142 127.265 76.7142C128.643 76.7142 129.761 77.8315 129.761 79.2098C129.761 80.588 128.643 81.7053 127.265 81.7053Z" fill="#D4D7E0"/>
<path d="M96.2728 81.7053C94.8945 81.7053 93.7773 80.588 93.7773 79.2098C93.7773 77.8315 94.8945 76.7142 96.2728 76.7142C97.651 76.7142 98.7683 77.8315 98.7683 79.2098C98.7683 80.588 97.651 81.7053 96.2728 81.7053Z" fill="#D4D7E0"/>
<path d="M158.32 143.077C156.942 143.077 155.825 141.959 155.825 140.581C155.825 139.203 156.942 138.086 158.32 138.086C159.698 138.086 160.816 139.203 160.816 140.581C160.816 141.959 159.698 143.077 158.32 143.077Z" fill="#D4D7E0"/>
<path d="M158.32 204.657C156.942 204.657 155.825 203.54 155.825 202.162C155.825 200.784 156.942 199.666 158.32 199.666C159.698 199.666 160.816 200.784 160.816 202.162C160.816 203.54 159.698 204.657 158.32 204.657Z" fill="#D4D7E0"/>
<path d="M127.265 143.077C125.887 143.077 124.769 141.959 124.769 140.581C124.769 139.203 125.887 138.086 127.265 138.086C128.643 138.086 129.761 139.203 129.761 140.581C129.761 141.959 128.643 143.077 127.265 143.077Z" fill="#D4D7E0"/>
<path d="M96.2728 143.077C94.8945 143.077 93.7773 141.959 93.7773 140.581C93.7773 139.203 94.8945 138.086 96.2728 138.086C97.651 138.086 98.7683 139.203 98.7683 140.581C98.7683 141.959 97.651 143.077 96.2728 143.077Z" fill="#D4D7E0"/>
<path d="M127.265 204.657C125.887 204.657 124.769 203.54 124.769 202.162C124.769 200.784 125.887 199.666 127.265 199.666C128.643 199.666 129.761 200.784 129.761 202.162C129.761 203.54 128.643 204.657 127.265 204.657Z" fill="#D4D7E0"/>
<path d="M96.2728 204.657C94.8945 204.657 93.7773 203.54 93.7773 202.162C93.7773 200.784 94.8945 199.666 96.2728 199.666C97.651 199.666 98.7683 200.784 98.7683 202.162C98.7683 203.54 97.651 204.657 96.2728 204.657Z" fill="#D4D7E0"/>
<path d="M173.848 97.0479C172.47 97.0479 171.352 95.9307 171.352 94.5524C171.352 93.1742 172.47 92.0569 173.848 92.0569C175.226 92.0569 176.343 93.1742 176.343 94.5524C176.343 95.9307 175.226 97.0479 173.848 97.0479Z" fill="#D4D7E0"/>
<path d="M142.793 97.0479C141.414 97.0479 140.297 95.9307 140.297 94.5524C140.297 93.1742 141.414 92.0569 142.793 92.0569C144.171 92.0569 145.288 93.1742 145.288 94.5524C145.288 95.9307 144.171 97.0479 142.793 97.0479Z" fill="#D4D7E0"/>
<path d="M111.8 97.0479C110.422 97.0479 109.305 95.9307 109.305 94.5524C109.305 93.1742 110.422 92.0569 111.8 92.0569C113.179 92.0569 114.296 93.1742 114.296 94.5524C114.296 95.9307 113.179 97.0479 111.8 97.0479Z" fill="#D4D7E0"/>
<path d="M173.848 158.419C172.47 158.419 171.352 157.302 171.352 155.924C171.352 154.545 172.47 153.428 173.848 153.428C175.226 153.428 176.343 154.545 176.343 155.924C176.343 157.302 175.226 158.419 173.848 158.419Z" fill="#D4D7E0"/>
<path d="M173.848 220C172.47 220 171.352 218.883 171.352 217.504C171.352 216.126 172.47 215.009 173.848 215.009C175.226 215.009 176.343 216.126 176.343 217.504C176.343 218.883 175.226 220 173.848 220Z" fill="#D4D7E0"/>
<path d="M142.793 158.419C141.414 158.419 140.297 157.302 140.297 155.924C140.297 154.545 141.414 153.428 142.793 153.428C144.171 153.428 145.288 154.545 145.288 155.924C145.288 157.302 144.171 158.419 142.793 158.419Z" fill="#D4D7E0"/>
<path d="M111.8 158.419C110.422 158.419 109.305 157.302 109.305 155.924C109.305 154.545 110.422 153.428 111.8 153.428C113.179 153.428 114.296 154.545 114.296 155.924C114.296 157.302 113.179 158.419 111.8 158.419Z" fill="#D4D7E0"/>
<path d="M142.793 220C141.414 220 140.297 218.883 140.297 217.504C140.297 216.126 141.414 215.009 142.793 215.009C144.171 215.009 145.288 216.126 145.288 217.504C145.288 218.883 144.171 220 142.793 220Z" fill="#D4D7E0"/>
<path d="M111.8 220C110.422 220 109.305 218.883 109.305 217.504C109.305 216.126 110.422 215.009 111.8 215.009C113.179 215.009 114.296 216.126 114.296 217.504C114.296 218.883 113.179 220 111.8 220Z" fill="#D4D7E0"/>
<path d="M158.043 97.0479C156.665 97.0479 155.547 95.9307 155.547 94.5524C155.547 93.1742 156.665 92.0569 158.043 92.0569C159.421 92.0569 160.538 93.1742 160.538 94.5524C160.538 95.9307 159.421 97.0479 158.043 97.0479Z" fill="#D4D7E0"/>
<path d="M126.988 97.0479C125.61 97.0479 124.492 95.9307 124.492 94.5524C124.492 93.1742 125.61 92.0569 126.988 92.0569C128.366 92.0569 129.483 93.1742 129.483 94.5524C129.483 95.9307 128.366 97.0479 126.988 97.0479Z" fill="#D4D7E0"/>
<path d="M95.9955 97.0479C94.6173 97.0479 93.5 95.9307 93.5 94.5524C93.5 93.1742 94.6173 92.0569 95.9955 92.0569C97.3737 92.0569 98.491 93.1742 98.491 94.5524C98.491 95.9307 97.3737 97.0479 95.9955 97.0479Z" fill="#D4D7E0"/>
<path d="M158.043 158.419C156.665 158.419 155.547 157.302 155.547 155.924C155.547 154.545 156.665 153.428 158.043 153.428C159.421 153.428 160.538 154.545 160.538 155.924C160.538 157.302 159.421 158.419 158.043 158.419Z" fill="#D4D7E0"/>
<path d="M158.043 220C156.665 220 155.547 218.883 155.547 217.504C155.547 216.126 156.665 215.009 158.043 215.009C159.421 215.009 160.538 216.126 160.538 217.504C160.538 218.883 159.421 220 158.043 220Z" fill="#D4D7E0"/>
<path d="M126.988 158.419C125.61 158.419 124.492 157.302 124.492 155.924C124.492 154.545 125.61 153.428 126.988 153.428C128.366 153.428 129.483 154.545 129.483 155.924C129.483 157.302 128.366 158.419 126.988 158.419Z" fill="#D4D7E0"/>
<path d="M95.9955 158.419C94.6173 158.419 93.5 157.302 93.5 155.924C93.5 154.545 94.6173 153.428 95.9955 153.428C97.3737 153.428 98.491 154.545 98.491 155.924C98.491 157.302 97.3737 158.419 95.9955 158.419Z" fill="#D4D7E0"/>
<path d="M126.988 220C125.61 220 124.492 218.883 124.492 217.504C124.492 216.126 125.61 215.009 126.988 215.009C128.366 215.009 129.483 216.126 129.483 217.504C129.483 218.883 128.366 220 126.988 220Z" fill="#D4D7E0"/>
<path d="M95.9955 220C94.6173 220 93.5 218.883 93.5 217.504C93.5 216.126 94.6173 215.009 95.9955 215.009C97.3737 215.009 98.491 216.126 98.491 217.504C98.491 218.883 97.3737 220 95.9955 220Z" fill="#D4D7E0"/>
</svg>
