<svg width="18" height="16" viewBox="0 0 18 16" fill="none" xmlns="http://www.w3.org/2000/svg">
<path d="M0 1C0 0.447715 0.50368 0 1.125 0H16.875C17.4963 0 18 0.447715 18 1C18 1.55228 17.4963 2 16.875 2H1.125C0.50368 2 0 1.55228 0 1Z" fill="#0AA8C1"/>
<path d="M0 15C0 14.4477 0.50368 14 1.125 14H16.875C17.4963 14 18 14.4477 18 15C18 15.5523 17.4963 16 16.875 16H1.125C0.50368 16 0 15.5523 0 15Z" fill="#0AA8C1"/>
<path d="M0 8C0 7.44772 0.50368 7 1.125 7H16.875C17.4963 7 18 7.44772 18 8C18 8.55228 17.4963 9 16.875 9H1.125C0.50368 9 0 8.55228 0 8Z" fill="#0AA8C1"/>
</svg>
