<svg width="20" height="19" viewBox="0 0 20 19" fill="none" xmlns="http://www.w3.org/2000/svg">
<path d="M14.9374 6.61735C12.614 5.47298 8.88491 3.63539 3.10081 0.783362C2.71085 0.556565 2.26217 0.526844 1.87451 0.642392L11.7984 9.38159L14.9374 6.61735Z" fill="#32BBFF"/>
<path d="M1.87355 0.642334C1.8009 0.664006 1.73019 0.69015 1.66258 0.721729C1.23449 0.925652 0.919922 1.31805 0.919922 1.81434V16.9489C0.919922 17.4452 1.23445 17.8376 1.66258 18.0415C1.73008 18.073 1.80074 18.0993 1.87332 18.1211L11.7974 9.38163L1.87355 0.642334Z" fill="#32BBFF"/>
<path d="M11.7981 9.38184L1.87402 18.1211C2.2618 18.2375 2.71047 18.21 3.10055 17.9799C8.70988 15.2139 12.3969 13.3981 14.7472 12.244C14.8126 12.2117 14.8767 12.18 14.9401 12.1487L11.7981 9.38184Z" fill="#32BBFF"/>
<path d="M0.919922 9.38135V16.9487C0.919922 17.445 1.23445 17.8374 1.66258 18.0412C1.73008 18.0728 1.80074 18.099 1.87332 18.1208L11.7974 9.38135H0.919922Z" fill="#2C9FD9"/>
<path d="M3.09937 0.783286C2.63629 0.514005 2.09019 0.521676 1.66211 0.721745L11.6463 9.51416L14.9358 6.6173C12.6125 5.47292 8.88342 3.63533 3.09937 0.783286Z" fill="#29CC5E"/>
<path d="M11.6464 9.24878L1.66211 18.0413C2.09023 18.2413 2.63629 18.2529 3.09938 17.9798C8.70868 15.2136 12.3957 13.3978 14.746 12.2437C14.8114 12.2113 14.8755 12.1796 14.9388 12.1483L11.6464 9.24878Z" fill="#D93F21"/>
<path d="M19.08 9.38177C19.08 8.96241 18.8397 8.53921 18.3635 8.30452C18.3635 8.30452 17.4729 7.8669 14.7431 6.52222L11.4961 9.38177L14.7462 12.2441C17.4461 10.9091 18.3634 10.459 18.3634 10.459C18.8397 10.2243 19.08 9.80112 19.08 9.38177Z" fill="#FFD500"/>
<path d="M18.3635 10.4586C18.8397 10.2239 19.08 9.80069 19.08 9.38135H11.4961L14.7462 12.2437C17.4461 10.9087 18.3635 10.4586 18.3635 10.4586Z" fill="#FFAA00"/>
</svg>
