<svg width="18" height="17" viewBox="0 0 18 17" fill="none" xmlns="http://www.w3.org/2000/svg">
<path d="M7.84884 14.3458C9.62791 14.3458 11.2814 13.8119 12.6 12.9283L16.2209 16.1132C16.4302 16.2973 16.7023 16.3894 16.9535 16.3894C17.2047 16.3894 17.4977 16.2973 17.686 16.1132C18.1047 15.745 18.1047 15.1743 17.686 14.8061L14.086 11.6211C15.0907 10.4613 15.6977 9.00685 15.6977 7.44197C15.6977 3.63102 12.1814 0.538086 7.84884 0.538086C3.51628 0.538086 0 3.63102 0 7.44197C0 11.2529 3.51628 14.3458 7.84884 14.3458ZM7.84884 2.37912C11.0093 2.37912 13.6047 4.64359 13.6047 7.44197C13.6047 10.2403 11.0093 12.5048 7.84884 12.5048C4.68837 12.5048 2.09302 10.2219 2.09302 7.44197C2.09302 4.662 4.66744 2.37912 7.84884 2.37912Z" fill="#0AA8C1"/>
</svg>
